<svg width="657.9px" height="122px" xmlns="http://www.w3.org/2000/svg" viewBox="-78.96247558593751 13.989306640625003 657.924951171875 122.02138671875" style="background: rgba(0, 0, 0, 0)" preserveAspectRatio="xMidYMid"><defs><linearGradient id="editing-gradient-gradient" x1="0" x2="1" y1="0.5" y2="0.5" gradientUnits="objectBoundingBox"><stop offset="0" stop-color="#11cfde"></stop><stop offset="1" stop-color="#a40faf"></stop></linearGradient></defs><g transform="matrix(1,0,0,1,9.5,-11.8)"><g transform="matrix(1,0,0,1.3,5.6,145.4)"><path d="M 2.8 -34.1 L -11.2 -34.1 L -3.1 -76.3 L 11 -76.3 L 2.8 -34.1 Z M 58.5 -32.8 L 58.5 -32.8 L 58.5 -32.8 Q 50.8 -32.8 50.8 -38.8 L 50.8 -38.8 L 50.8 -38.8 Q 50.8 -41.4 51.9 -46.5 L 51.9 -46.5 L 51.9 -46.5 Q 53 -51.6 53.4 -53.7 L 53.4 -53.7 L 53.4 -53.7 Q 54.3 -58.3 54.3 -59.8 L 54.3 -59.8 L 54.3 -59.8 Q 54.3 -63.1 51.9 -63.1 L 51.9 -63.1 L 51.9 -63.1 Q 50.3 -63.1 48.7 -60.9 L 48.7 -60.9 L 48.7 -60.9 Q 47.2 -58.7 46.5 -54.2 L 46.5 -54.2 L 42.5 -34.1 L 30 -32.8 L 33.5 -50.2 L 33.5 -50.2 Q 34.1 -53.1 34.6 -56.3 L 34.6 -56.3 L 34.6 -56.3 Q 35.1 -59.6 35.1 -60.1 L 35.1 -60.1 L 35.1 -60.1 Q 35.1 -63.1 32.9 -63.1 L 32.9 -63.1 L 32.9 -63.1 Q 31.4 -63.1 29.8 -60.9 L 29.8 -60.9 L 29.8 -60.9 Q 28.2 -58.7 27.3 -54.2 L 27.3 -54.2 L 23.4 -34.1 L 10.8 -32.8 L 17.6 -66.7 L 28 -68 L 26.9 -61.5 L 26.9 -61.5 Q 28.6 -65 31.6 -66.5 L 31.6 -66.5 L 31.6 -66.5 Q 34.7 -68 39.5 -68 L 39.5 -68 L 39.5 -68 Q 42.3 -68 44.1 -66.7 L 44.1 -66.7 L 44.1 -66.7 Q 45.8 -65.3 46.4 -63.1 L 46.4 -63.1 L 46.4 -63.1 Q 47.5 -65.4 50.3 -66.7 L 50.3 -66.7 L 50.3 -66.7 Q 53.1 -68 56.5 -68 L 56.5 -68 L 56.5 -68 Q 59.9 -68 61.6 -67.3 L 61.6 -67.3 L 61.6 -67.3 Q 63.3 -66.5 64.3 -65.3 L 64.3 -65.3 L 64.3 -65.3 Q 66.1 -63.1 66.1 -59 L 66.1 -59 L 66.1 -59 Q 66.1 -54.9 64.3 -46.6 L 64.3 -46.6 L 64.3 -46.6 Q 63.4 -42.5 63.4 -41 L 63.4 -41 L 63.4 -41 Q 63.4 -39.5 64.3 -38.6 L 64.3 -38.6 L 64.3 -38.6 Q 65.2 -37.7 66.5 -37.5 L 66.5 -37.5 L 66.5 -37.5 Q 65.8 -35.4 63.6 -34.1 L 63.6 -34.1 L 63.6 -34.1 Q 61.4 -32.8 58.5 -32.8 Z M 74.2 -36 L 74.2 -36 L 74.2 -36 Q 72.7 -37.7 72 -40.3 L 72 -40.3 L 72 -40.3 Q 71.3 -42.9 71.3 -47.2 L 71.3 -47.2 L 71.3 -47.2 Q 71.3 -51.5 72.8 -55.4 L 72.8 -55.4 L 72.8 -55.4 Q 74.3 -59.3 76.9 -62.1 L 76.9 -62.1 L 76.9 -62.1 Q 82.5 -68 91.5 -68 L 91.5 -68 L 91.5 -68 Q 94.8 -68 97.2 -66.9 L 97.2 -66.9 L 108.1 -68 L 103.4 -43 L 103.4 -43 Q 103.2 -42.3 103.2 -40.9 L 103.2 -40.9 L 103.2 -40.9 Q 103.2 -39.5 104.1 -38.6 L 104.1 -38.6 L 104.1 -38.6 Q 104.9 -37.7 106.2 -37.5 L 106.2 -37.5 L 106.2 -37.5 Q 105.6 -35.4 103.2 -34.1 L 103.2 -34.1 L 103.2 -34.1 Q 100.9 -32.8 98.3 -32.8 L 98.3 -32.8 L 98.3 -32.8 Q 95.6 -32.8 93.9 -33.8 L 93.9 -33.8 L 93.9 -33.8 Q 92.1 -34.8 91.6 -36.4 L 91.6 -36.4 L 91.6 -36.4 Q 90.6 -34.8 88.4 -33.8 L 88.4 -33.8 L 88.4 -33.8 Q 86.2 -32.8 83.3 -32.8 L 83.3 -32.8 L 83.3 -32.8 Q 80.4 -32.8 78 -33.6 L 78 -33.6 L 78 -33.6 Q 75.7 -34.3 74.2 -36 Z M 87.7 -62 L 87.7 -62 L 87.7 -62 Q 86.9 -60.8 86.3 -58.9 L 86.3 -58.9 L 86.3 -58.9 Q 85.7 -56.9 84.6 -51.7 L 84.6 -51.7 L 84.6 -51.7 Q 83.5 -46.5 83.5 -42.8 L 83.5 -42.8 L 83.5 -42.8 Q 83.5 -39.1 84.1 -38 L 84.1 -38 L 84.1 -38 Q 84.7 -36.9 85.7 -36.9 L 85.7 -36.9 L 85.7 -36.9 Q 87.8 -36.9 89.3 -38.8 L 89.3 -38.8 L 89.3 -38.8 Q 90.8 -40.8 91.3 -44.3 L 91.3 -44.3 L 94.7 -63 L 94.7 -63 Q 93.4 -64.2 91.8 -64.2 L 91.8 -64.2 L 91.8 -64.2 Q 90.3 -64.2 89.3 -63.6 L 89.3 -63.6 L 89.3 -63.6 Q 88.4 -63.1 87.7 -62 Z M 115.9 -60.8 L 115.9 -60.8 L 115.9 -60.8 Q 118 -63.9 121.3 -65.9 L 121.3 -65.9 L 121.3 -65.9 Q 124.6 -68 128.7 -68 L 128.7 -68 L 128.7 -68 Q 132.7 -68 134.6 -66.7 L 134.6 -66.7 L 147.2 -68 L 142.8 -43.4 L 142.8 -43.4 Q 140.6 -30.9 135.8 -25.9 L 135.8 -25.9 L 135.8 -25.9 Q 131.3 -21.3 122.5 -21.3 L 122.5 -21.3 L 122.5 -21.3 Q 115.7 -21.3 111.9 -23.4 L 111.9 -23.4 L 111.9 -23.4 Q 108.1 -25.5 108.1 -29 L 108.1 -29 L 108.1 -29 Q 108.1 -31.6 110 -33.1 L 110 -33.1 L 110 -33.1 Q 112 -34.7 115.1 -34.7 L 115.1 -34.7 L 115.1 -34.7 Q 117.8 -34.7 119.8 -33.4 L 119.8 -33.4 L 119.8 -33.4 Q 121 -32.8 121.6 -31.9 L 121.6 -31.9 L 121.6 -31.9 Q 120.1 -30.6 120.1 -28.5 L 120.1 -28.5 L 120.1 -28.5 Q 120.1 -25.8 122.7 -25.8 L 122.7 -25.8 L 122.7 -25.8 Q 127 -25.8 129.4 -35.9 L 129.4 -35.9 L 129.4 -35.9 Q 130.1 -38.6 130.7 -41.4 L 130.7 -41.4 L 130.7 -41.4 Q 127.8 -37.9 121.3 -37.9 L 121.3 -37.9 L 121.3 -37.9 Q 116.8 -37.9 114.1 -40 L 114.1 -40 L 114.1 -40 Q 111.5 -42.2 111.5 -47.3 L 111.5 -47.3 L 111.5 -47.3 Q 111.5 -50.5 112.6 -54.1 L 112.6 -54.1 L 112.6 -54.1 Q 113.7 -57.8 115.9 -60.8 Z M 124.2 -47.1 L 124.2 -47.1 L 124.2 -47.1 Q 124.2 -42.8 126.4 -42.8 L 126.4 -42.8 L 126.4 -42.8 Q 128 -42.8 129.4 -44.4 L 129.4 -44.4 L 129.4 -44.4 Q 130.6 -45.8 131 -47.8 L 131 -47.8 L 134.3 -64.2 L 134.3 -64.2 Q 134 -64.3 133.7 -64.4 L 133.7 -64.4 L 133.7 -64.4 Q 133 -64.7 132.2 -64.7 L 132.2 -64.7 L 132.2 -64.7 Q 128.3 -64.7 126 -58.3 L 126 -58.3 L 126 -58.3 Q 124.2 -53.3 124.2 -47.1 Z M 175.6 -44.9 L 175.6 -44.9 L 175.6 -44.9 Q 177.2 -43.8 177.2 -41.4 L 177.2 -41.4 L 177.2 -41.4 Q 177.2 -39 176 -37.5 L 176 -37.5 L 176 -37.5 Q 174.7 -35.9 172.8 -34.9 L 172.8 -34.9 L 172.8 -34.9 Q 168.7 -32.8 164.2 -32.8 L 164.2 -32.8 L 164.2 -32.8 Q 159.8 -32.8 157.2 -33.8 L 157.2 -33.8 L 157.2 -33.8 Q 154.6 -34.7 152.9 -36.5 L 152.9 -36.5 L 152.9 -36.5 Q 149.5 -39.9 149.5 -46.1 L 149.5 -46.1 L 149.5 -46.1 Q 149.5 -55.8 154.8 -61.7 L 154.8 -61.7 L 154.8 -61.7 Q 160.4 -68 170.2 -68 L 170.2 -68 L 170.2 -68 Q 176.3 -68 179.3 -65.4 L 179.3 -65.4 L 179.3 -65.4 Q 181.5 -63.5 181.5 -60.4 L 181.5 -60.4 L 181.5 -60.4 Q 181.5 -49.1 162.1 -49.1 L 162.1 -49.1 L 162.1 -49.1 Q 161.8 -47.5 161.8 -46 L 161.8 -46 L 161.8 -46 Q 161.8 -43.1 163.1 -42 L 163.1 -42 L 163.1 -42 Q 164.4 -40.9 166.9 -40.9 L 166.9 -40.9 L 166.9 -40.9 Q 169.3 -40.9 171.9 -42 L 171.9 -42 L 171.9 -42 Q 174.5 -43.1 175.6 -44.9 Z M 162.5 -51.9 L 162.5 -51.9 L 162.5 -51.9 Q 167.1 -51.9 169.7 -54.7 L 169.7 -54.7 L 169.7 -54.7 Q 172.3 -57.4 172.3 -61.7 L 172.3 -61.7 L 172.3 -61.7 Q 172.3 -63.1 171.8 -63.9 L 171.8 -63.9 L 171.8 -63.9 Q 171.2 -64.7 170.1 -64.7 L 170.1 -64.7 L 170.1 -64.7 Q 169 -64.7 168.1 -64.3 L 168.1 -64.3 L 168.1 -64.3 Q 167.2 -63.9 166.2 -62.5 L 166.2 -62.5 L 166.2 -62.5 Q 163.9 -59.3 162.5 -51.9 Z M 202.8 -56.5 L 202.8 -56.5 L 202.8 -56.5 Q 203.7 -58.9 203.7 -61 L 203.7 -61 L 203.7 -61 Q 203.7 -64.7 200.7 -64.7 L 200.7 -64.7 L 200.7 -64.7 Q 199.1 -64.7 197.7 -63.3 L 197.7 -63.3 L 197.7 -63.3 Q 196.4 -61.9 196.4 -60.1 L 196.4 -60.1 L 196.4 -60.1 Q 196.4 -58.8 197.5 -57.8 L 197.5 -57.8 L 197.5 -57.8 Q 198.9 -56.3 202.7 -54 L 202.7 -54 L 202.7 -54 Q 206.5 -51.7 207.9 -49.9 L 207.9 -49.9 L 207.9 -49.9 Q 209.4 -48 209.4 -45.4 L 209.4 -45.4 L 209.4 -45.4 Q 209.4 -42.8 208.1 -40.4 L 208.1 -40.4 L 208.1 -40.4 Q 206.9 -38 204.6 -36.4 L 204.6 -36.4 L 204.6 -36.4 Q 199.8 -32.8 192.1 -32.8 L 192.1 -32.8 L 192.1 -32.8 Q 188 -32.8 184.8 -35 L 184.8 -35 L 184.8 -35 Q 181.6 -37.1 181.6 -39.6 L 181.6 -39.6 L 181.6 -39.6 Q 181.6 -42.1 183.4 -43.5 L 183.4 -43.5 L 183.4 -43.5 Q 185.2 -45 187.9 -45 L 187.9 -45 L 187.9 -45 Q 190.6 -45 192.3 -44 L 192.3 -44 L 192.3 -44 Q 191.4 -41.9 191.4 -40.5 L 191.4 -40.5 L 191.4 -40.5 Q 191.4 -36.3 195 -36.3 L 195 -36.3 L 195 -36.3 Q 196.6 -36.3 197.6 -37.2 L 197.6 -37.2 L 197.6 -37.2 Q 198.6 -38.2 198.6 -39.8 L 198.6 -39.8 L 198.6 -39.8 Q 198.6 -43.1 193.1 -46.6 L 193.1 -46.6 L 193.1 -46.6 Q 188.6 -49.5 187.6 -50.7 L 187.6 -50.7 L 187.6 -50.7 Q 185.9 -52.7 185.9 -55.3 L 185.9 -55.3 L 185.9 -55.3 Q 185.9 -57.8 187.1 -60.3 L 187.1 -60.3 L 187.1 -60.3 Q 188.3 -62.7 190.5 -64.4 L 190.5 -64.4 L 190.5 -64.4 Q 195.2 -68 203.3 -68 L 203.3 -68 L 203.3 -68 Q 207.5 -68 210 -66.3 L 210 -66.3 L 210 -66.3 Q 212.4 -64.7 212.4 -61.9 L 212.4 -61.9 L 212.4 -61.9 Q 212.4 -59 210.7 -57.4 L 210.7 -57.4 L 210.7 -57.4 Q 209 -55.8 206 -55.8 L 206 -55.8 L 206 -55.8 Q 203.9 -55.8 202.8 -56.5 Z M 253.9 -54.7 L 266.8 -55.8 L 266.8 -55.8 Q 262.2 -45.7 262.2 -34 L 262.2 -34 L 262.2 -34 Q 260.5 -32.8 258 -32.8 L 258 -32.8 L 258 -32.8 Q 255.4 -32.8 253.8 -34 L 253.8 -34 L 253.8 -34 Q 252.2 -35.2 251.9 -36.4 L 251.9 -36.4 L 251.9 -36.4 Q 250.3 -34.7 247.7 -33.8 L 247.7 -33.8 L 247.7 -33.8 Q 245.1 -32.8 242.4 -32.8 L 242.4 -32.8 L 242.4 -32.8 Q 239.6 -32.8 237.2 -33.7 L 237.2 -33.7 L 237.2 -33.7 Q 234.8 -34.6 233 -36.6 L 233 -36.6 L 233 -36.6 Q 228.9 -40.9 228.9 -49.2 L 228.9 -49.2 L 228.9 -49.2 Q 228.9 -62 235.7 -69.7 L 235.7 -69.7 L 235.7 -69.7 Q 242.8 -77.6 255.3 -77.6 L 255.3 -77.6 L 255.3 -77.6 Q 263.9 -77.6 267 -73.1 L 267 -73.1 L 267 -73.1 Q 267.9 -71.7 267.9 -70 L 267.9 -70 L 267.9 -70 Q 267.9 -68.3 267.2 -66.9 L 267.2 -66.9 L 267.2 -66.9 Q 266.5 -65.4 265.3 -64.3 L 265.3 -64.3 L 265.3 -64.3 Q 262.5 -61.7 259.2 -61.7 L 259.2 -61.7 L 259.2 -61.7 Q 257.8 -61.7 256.5 -62.2 L 256.5 -62.2 L 256.5 -62.2 Q 256.8 -64.1 256.8 -66.3 L 256.8 -66.3 L 256.8 -66.3 Q 256.8 -68.6 256.6 -69.6 L 256.6 -69.6 L 256.6 -69.6 Q 256.5 -70.6 256.1 -71.5 L 256.1 -71.5 L 256.1 -71.5 Q 255.3 -73.2 253.4 -73.2 L 253.4 -73.2 L 253.4 -73.2 Q 251.6 -73.2 249.6 -71.2 L 249.6 -71.2 L 249.6 -71.2 Q 247.6 -69.3 246 -66.1 L 246 -66.1 L 246 -66.1 Q 242.5 -58.9 242.5 -50.3 L 242.5 -50.3 L 242.5 -50.3 Q 242.5 -46.3 244 -43.5 L 244 -43.5 L 244 -43.5 Q 245.7 -40.4 248.6 -40.4 L 248.6 -40.4 L 248.6 -40.4 Q 249.6 -40.4 250.5 -40.9 L 250.5 -40.9 L 250.5 -40.9 Q 251.5 -41.4 251.9 -41.8 L 251.9 -41.8 L 253.9 -54.7 Z M 272.8 -36 L 272.8 -36 L 272.8 -36 Q 271.3 -37.7 270.6 -40.3 L 270.6 -40.3 L 270.6 -40.3 Q 269.9 -42.9 269.9 -47.2 L 269.9 -47.2 L 269.9 -47.2 Q 269.9 -51.5 271.4 -55.4 L 271.4 -55.4 L 271.4 -55.4 Q 272.9 -59.3 275.5 -62.1 L 275.5 -62.1 L 275.5 -62.1 Q 281 -68 290.1 -68 L 290.1 -68 L 290.1 -68 Q 293.4 -68 295.8 -66.9 L 295.8 -66.9 L 306.7 -68 L 302 -43 L 302 -43 Q 301.8 -42.3 301.8 -40.9 L 301.8 -40.9 L 301.8 -40.9 Q 301.8 -39.5 302.6 -38.6 L 302.6 -38.6 L 302.6 -38.6 Q 303.5 -37.7 304.8 -37.5 L 304.8 -37.5 L 304.8 -37.5 Q 304.1 -35.4 301.8 -34.1 L 301.8 -34.1 L 301.8 -34.1 Q 299.5 -32.8 296.9 -32.8 L 296.9 -32.8 L 296.9 -32.8 Q 294.2 -32.8 292.5 -33.8 L 292.5 -33.8 L 292.5 -33.8 Q 290.7 -34.8 290.2 -36.4 L 290.2 -36.4 L 290.2 -36.4 Q 289.2 -34.8 287 -33.8 L 287 -33.8 L 287 -33.8 Q 284.8 -32.8 281.9 -32.8 L 281.9 -32.8 L 281.9 -32.8 Q 279 -32.8 276.6 -33.6 L 276.6 -33.6 L 276.6 -33.6 Q 274.3 -34.3 272.8 -36 Z M 286.3 -62 L 286.3 -62 L 286.3 -62 Q 285.5 -60.8 284.9 -58.9 L 284.9 -58.9 L 284.9 -58.9 Q 284.2 -56.9 283.2 -51.7 L 283.2 -51.7 L 283.2 -51.7 Q 282.1 -46.5 282.1 -42.8 L 282.1 -42.8 L 282.1 -42.8 Q 282.1 -39.1 282.7 -38 L 282.7 -38 L 282.7 -38 Q 283.3 -36.9 284.3 -36.9 L 284.3 -36.9 L 284.3 -36.9 Q 286.4 -36.9 287.9 -38.8 L 287.9 -38.8 L 287.9 -38.8 Q 289.4 -40.8 289.9 -44.3 L 289.9 -44.3 L 293.3 -63 L 293.3 -63 Q 292 -64.2 290.4 -64.2 L 290.4 -64.2 L 290.4 -64.2 Q 288.9 -64.2 287.9 -63.6 L 287.9 -63.6 L 287.9 -63.6 Q 287 -63.1 286.3 -62 Z M 325.5 -37.6 L 325.5 -37.6 L 325.5 -37.6 Q 323.5 -32.8 317.1 -32.8 L 317.1 -32.8 L 317.1 -32.8 Q 313.9 -32.8 311.9 -35 L 311.9 -35 L 311.9 -35 Q 310.2 -36.9 310.2 -39 L 310.2 -39 L 310.2 -39 Q 310.2 -43.8 312.5 -54.3 L 312.5 -54.3 L 317.1 -78.9 L 330.1 -80.2 L 323.9 -47.8 L 323.9 -47.8 Q 322.8 -43 322.8 -41.4 L 322.8 -41.4 L 322.8 -41.4 Q 322.8 -37.7 325.5 -37.6 Z M 346.2 -37.6 L 346.2 -37.6 L 346.2 -37.6 Q 344.2 -32.8 337.9 -32.8 L 337.9 -32.8 L 337.9 -32.8 Q 334.7 -32.8 332.6 -35 L 332.6 -35 L 332.6 -35 Q 331 -36.9 331 -39 L 331 -39 L 331 -39 Q 331 -43.8 333.2 -54.3 L 333.2 -54.3 L 337.9 -78.9 L 350.9 -80.2 L 344.7 -47.8 L 344.7 -47.8 Q 343.6 -43 343.6 -41.4 L 343.6 -41.4 L 343.6 -41.4 Q 343.6 -37.7 346.2 -37.6 Z M 377.6 -44.9 L 377.6 -44.9 L 377.6 -44.9 Q 379.2 -43.8 379.2 -41.4 L 379.2 -41.4 L 379.2 -41.4 Q 379.2 -39 377.9 -37.5 L 377.9 -37.5 L 377.9 -37.5 Q 376.7 -35.9 374.7 -34.9 L 374.7 -34.9 L 374.7 -34.9 Q 370.6 -32.8 366.2 -32.8 L 366.2 -32.8 L 366.2 -32.8 Q 361.8 -32.8 359.2 -33.8 L 359.2 -33.8 L 359.2 -33.8 Q 356.6 -34.7 354.9 -36.5 L 354.9 -36.5 L 354.9 -36.5 Q 351.5 -39.9 351.5 -46.1 L 351.5 -46.1 L 351.5 -46.1 Q 351.5 -55.8 356.8 -61.7 L 356.8 -61.7 L 356.8 -61.7 Q 362.4 -68 372.2 -68 L 372.2 -68 L 372.2 -68 Q 378.3 -68 381.3 -65.4 L 381.3 -65.4 L 381.3 -65.4 Q 383.5 -63.5 383.5 -60.4 L 383.5 -60.4 L 383.5 -60.4 Q 383.5 -49.1 364.1 -49.1 L 364.1 -49.1 L 364.1 -49.1 Q 363.8 -47.5 363.8 -46 L 363.8 -46 L 363.8 -46 Q 363.8 -43.1 365.1 -42 L 365.1 -42 L 365.1 -42 Q 366.4 -40.9 368.9 -40.9 L 368.9 -40.9 L 368.9 -40.9 Q 371.3 -40.9 373.9 -42 L 373.9 -42 L 373.9 -42 Q 376.5 -43.1 377.6 -44.9 Z M 364.5 -51.9 L 364.5 -51.9 L 364.5 -51.9 Q 369 -51.9 371.7 -54.7 L 371.7 -54.7 L 371.7 -54.7 Q 374.3 -57.4 374.3 -61.7 L 374.3 -61.7 L 374.3 -61.7 Q 374.3 -63.1 373.7 -63.9 L 373.7 -63.9 L 373.7 -63.9 Q 373.2 -64.7 372.1 -64.7 L 372.1 -64.7 L 372.1 -64.7 Q 371 -64.7 370.1 -64.3 L 370.1 -64.3 L 370.1 -64.3 Q 369.2 -63.9 368.2 -62.5 L 368.2 -62.5 L 368.2 -62.5 Q 365.8 -59.3 364.5 -51.9 Z M 405.7 -52.1 L 405.7 -52.1 L 405.7 -52.1 Q 408 -56.2 408 -60.3 L 408 -60.3 L 408 -60.3 Q 408 -63.1 406 -63.1 L 406 -63.1 L 406 -63.1 Q 404.5 -63.1 402.9 -60.4 L 402.9 -60.4 L 402.9 -60.4 Q 401.2 -57.8 400.7 -54.4 L 400.7 -54.4 L 397.4 -34.1 L 384.1 -32.8 L 390.7 -66.7 L 401.2 -68 L 400.1 -61.5 L 400.1 -61.5 Q 403.2 -68 410.3 -68 L 410.3 -68 L 410.3 -68 Q 414 -68 416 -66.1 L 416 -66.1 L 416 -66.1 Q 418 -64.2 418 -60.2 L 418 -60.2 L 418 -60.2 Q 418 -56.3 415.4 -53.8 L 415.4 -53.8 L 415.4 -53.8 Q 412.8 -51.3 408.4 -51.3 L 408.4 -51.3 L 408.4 -51.3 Q 406.5 -51.3 405.7 -52.1 Z M 439.4 -41.3 L 439.4 -41.3 L 439.4 -41.3 Q 436.1 -37.9 430 -37.9 L 430 -37.9 L 430 -37.9 Q 422.4 -37.9 420.8 -43.4 L 420.8 -43.4 L 420.8 -43.4 Q 420.2 -45.1 420.2 -46.9 L 420.2 -46.9 L 420.2 -46.9 Q 420.2 -48.8 420.6 -50.7 L 420.6 -50.7 L 423.6 -66.7 L 436.6 -68 L 433.1 -49.4 L 433.1 -49.4 Q 433 -48.5 432.8 -47.6 L 432.8 -47.6 L 432.8 -47.6 Q 432.6 -46.7 432.6 -45.8 L 432.6 -45.8 L 432.6 -45.8 Q 432.6 -44.9 432.9 -44.3 L 432.9 -44.3 L 432.9 -44.3 Q 433.2 -43.7 433.7 -43.3 L 433.7 -43.3 L 433.7 -43.3 Q 434.5 -42.8 435.8 -42.8 L 435.8 -42.8 L 435.8 -42.8 Q 437.2 -42.8 438.4 -44.4 L 438.4 -44.4 L 438.4 -44.4 Q 439.6 -46.1 440.1 -49 L 440.1 -49 L 443.7 -66.7 L 456.3 -68 L 451.5 -42.8 L 451.5 -42.8 Q 449.1 -30.6 444.2 -25.7 L 444.2 -25.7 L 444.2 -25.7 Q 441.7 -23.2 438.5 -22.2 L 438.5 -22.2 L 438.5 -22.2 Q 435.3 -21.2 431.1 -21.2 L 431.1 -21.2 L 431.1 -21.2 Q 424.4 -21.2 420.6 -23.3 L 420.6 -23.3 L 420.6 -23.3 Q 416.7 -25.4 416.7 -29 L 416.7 -29 L 416.7 -29 Q 416.7 -31.6 418.7 -33.1 L 418.7 -33.1 L 418.7 -33.1 Q 420.7 -34.6 423.8 -34.6 L 423.8 -34.6 L 423.8 -34.6 Q 426.5 -34.6 428.5 -33.4 L 428.5 -33.4 L 428.5 -33.4 Q 429.7 -32.7 430.3 -31.8 L 430.3 -31.8 L 430.3 -31.8 Q 428.8 -30.6 428.8 -28.4 L 428.8 -28.4 L 428.8 -28.4 Q 428.8 -25.6 431.4 -25.6 L 431.4 -25.6 L 431.4 -25.6 Q 435.6 -25.6 438 -35.4 L 438 -35.4 L 438 -35.4 Q 438.7 -38.2 439.4 -41.3 Z" fill="url(#editing-gradient-gradient)"></path></g></g><style>text {
  font-size: 64px;
  font-family: Arial Black;
  dominant-baseline: central;
  text-anchor: middle;
}</style></svg>